<?xml version="1.0" encoding="utf-8"?>
<!-- Generator: Adobe Illustrator 19.0.0, SVG Export Plug-In . SVG Version: 6.00 Build 0)  -->
<svg version="1.1" id="Layer_1" xmlns="http://www.w3.org/2000/svg" xmlns:xlink="http://www.w3.org/1999/xlink" x="0px" y="0px"
	 width="11px" height="11px" viewBox="0 0 11 11" style="enable-background:new 0 0 11 11;" xml:space="preserve">
<style type="text/css">
	.st0{fill:#FFFFFF;}
</style>
<path id="XMLID_1_" class="st0" d="M9.6,10.7C9.4,10.9,9.3,11,9.3,11L5.8,7.5C5.6,7.4,5.5,7.2,5.5,7.2L2,10.7
	C1.9,10.9,1.7,11,1.7,11L0,9.3c0,0,0.1-0.1,0.3-0.3l3.2-3.2c0.2-0.2,0.3-0.3,0.3-0.3L0,1.7c0,0,0.1-0.1,0.3-0.3l1.2-1.2
	C1.6,0.1,1.7,0,1.7,0l3.8,3.8c0,0,0.1-0.1,0.3-0.3L9.3,0c0,0,0.1,0.1,0.3,0.3L11,1.7l-0.1,0.1L7.2,5.5c0,0,0.1,0.1,0.3,0.3L11,9.3
	c0,0-0.1,0.1-0.3,0.3L9.6,10.7z"/>
</svg>
