<?xml version="1.0" encoding="utf-8"?>
<!-- Generator: Adobe Illustrator 19.0.0, SVG Export Plug-In . SVG Version: 6.00 Build 0)  -->
<svg version="1.1" id="Layer_1" xmlns="http://www.w3.org/2000/svg" xmlns:xlink="http://www.w3.org/1999/xlink" x="0px" y="0px"
	 width="16px" height="16px" viewBox="0 0 16 16" style="enable-background:new 0 0 16 16;" xml:space="preserve">
<style type="text/css">
	.st0{fill:#FFFFFF;}
</style>
<path id="info-2-icon" class="st0" d="M8,1.6c3.6,0,6.4,2.9,6.4,6.4c0,3.6-2.9,6.4-6.4,6.4c-3.6,0-6.4-2.9-6.4-6.4
	C1.6,4.4,4.4,1.6,8,1.6 M8,0C3.6,0,0,3.6,0,8c0,4.4,3.6,8,8,8c4.4,0,8-3.6,8-8C16,3.6,12.4,0,8,0L8,0z M9.2,12.3H6.9V7h2.2V12.3z
	 M8,5.9c-0.7,0-1.2-0.6-1.2-1.2C6.8,4,7.4,3.4,8,3.4c0.7,0,1.2,0.6,1.2,1.2C9.3,5.4,8.7,5.9,8,5.9z"/>
</svg>
