<?xml version="1.0" encoding="utf-8"?>
<!-- Generator: Adobe Illustrator 19.0.0, SVG Export Plug-In . SVG Version: 6.00 Build 0)  -->
<svg version="1.1" id="Layer_1" xmlns="http://www.w3.org/2000/svg" xmlns:xlink="http://www.w3.org/1999/xlink" x="0px" y="0px"
	 width="40px" height="40px" viewBox="0 0 40 40" style="enable-background:new 0 0 40 40;" xml:space="preserve">
<style type="text/css">
	.st0{fill:#FFFFFF;}
</style>
<g>
	<g>
		<path class="st0" d="M12.9,17c0.4,2.3,2.2,5.3,5.2,6.4c1.2,0.4,2.6,0.4,3.8,0c2.9-1.1,4.8-4,5.2-6.4c0.4,0,0.9-0.6,1.5-2.6
			c0.8-2.7,0-3.1-0.7-3c0.1-0.4,0.2-0.7,0.3-1.1c1.2-7-2.3-7.2-2.3-7.2S25.2,2,23.7,1.1c-1-0.6-2.4-1.1-4.3-0.9
			c-0.6,0-1.2,0.1-1.7,0.3c-0.7,0.2-1.3,0.6-1.9,1c-0.7,0.4-1.3,1-1.9,1.6c-0.9,0.9-1.7,2.1-2.1,3.6c-0.3,1.1-0.2,2.3,0,3.6
			c0.1,0.4,0.2,0.7,0.3,1.1c-0.7-0.1-1.5,0.3-0.7,3C12,16.4,12.6,17,12.9,17L12.9,17z M12.9,17"/>
		<path class="st0" d="M33.5,26.2c-4.2-1.1-7.6-3.5-7.6-3.5l-2.7,8.4l-0.5,1.6l0,0L22.3,34l-1.4-4c3.4-4.8-0.7-4.8-0.9-4.7
			c-0.2,0-4.4-0.1-0.9,4.7l-1.4,4l-0.4-1.3l0,0l-0.5-1.6l-2.7-8.4c0,0-3.4,2.4-7.6,3.5c-3.1,0.8-3.3,4.4-3.2,6.2
			c0,0,0.2,2.4,0.4,3.5c0,0,6.1,4,16.3,4c10.2,0,16.3-4,16.3-4c0.2-1.1,0.4-3.5,0.4-3.5C36.8,30.6,36.7,27,33.5,26.2L33.5,26.2z
			 M33.5,26.2"/>
	</g>
</g>
</svg>
