<?xml version="1.0" encoding="UTF-8"?>
<svg width="40px" height="40px" viewBox="0 0 40 40" version="1.1" xmlns="http://www.w3.org/2000/svg" xmlns:xlink="http://www.w3.org/1999/xlink">
    <!-- Generator: Sketch 47 (45396) - http://www.bohemiancoding.com/sketch -->
    <title>Phone</title>
    <desc>Created with Sketch.</desc>
    <defs></defs>
    <g id="Page-1" stroke="none" stroke-width="1" fill="none" fill-rule="evenodd">
        <g id="Phone" fill="#FFFFFF">
            <g id="phone-receiver">
                <path d="M39.9810519,31.5679287 C40.0654654,32.2172819 39.8678375,32.7825991 39.3880819,33.2626687 L33.7561637,38.8556914 C33.5020583,39.1382634 33.1703722,39.3783415 32.7611917,39.5760986 C32.3517518,39.7738558 31.9493175,39.9009916 31.5544077,39.9574195 C31.5260393,39.9574195 31.4411933,39.9645162 31.3000429,39.9787097 C31.159152,39.9929032 30.9757084,40 30.7496256,40 C30.2134789,40 29.3452137,39.9080884 28.1455218,39.7245247 C26.9454839,39.540961 25.4775025,39.0889323 23.741664,38.368525 C22.0054795,37.6480312 20.036466,36.5675934 17.8343641,35.127125 C15.6326082,33.68657 13.2892694,31.7088253 10.8051261,29.1950158 C8.82902057,27.2456581 7.19177973,25.3812018 5.89314417,23.601647 C4.59442212,21.8220056 3.55015134,20.1765967 2.75955343,18.6651608 C1.96904201,17.1539845 1.37607195,15.7837913 0.981162195,14.5548408 C0.585819994,13.3263231 0.317616939,12.2668294 0.176380051,11.3770519 C0.0351431633,10.487188 -0.0212478047,9.78807096 0.00712065774,9.27961435 C0.0351431633,8.77115774 0.0493273946,8.48858569 0.0493273946,8.43207128 C0.105804852,8.03655695 0.232771019,7.63429204 0.430485364,7.22449766 C0.62811322,6.81478981 0.867947813,6.48314629 1.15042159,6.22887471 L6.78233979,0.593271496 C7.1775955,0.197757165 7.62932867,0 8.13745281,0 C8.50434006,0 8.82902057,0.105758974 9.11114839,0.317709652 C9.39353567,0.529746875 9.63345675,0.791028662 9.83108461,1.1017281 L14.3619951,9.70325607 C14.6160139,10.1551983 14.6866756,10.6498075 14.5738072,11.1863915 C14.4609388,11.7232352 14.2211042,12.1751774 13.853871,12.5423047 L11.7790812,14.618452 C11.7226902,14.675226 11.6730454,14.7668781 11.6308387,14.8939273 C11.5885455,15.0210631 11.5672691,15.1272548 11.5672691,15.2117235 C11.6801375,15.8050815 11.9341564,16.4829083 12.3294986,17.2455499 C12.6683633,17.9237229 13.1906717,18.7499757 13.8964237,19.7246545 C14.6021757,20.6989872 15.6042397,21.8220056 16.9029617,23.0931904 C18.1732288,24.3926756 19.3023455,25.4024921 20.2905713,26.1228994 C21.2783646,26.843047 22.1040772,27.3727939 22.7676224,27.7118804 C23.4308217,28.0506206 23.9392918,28.2554746 24.2919948,28.3260959 L24.8210494,28.4319415 C24.8775268,28.4319415 24.9693784,28.4106512 25.096431,28.3684168 C25.2234837,28.3260959 25.3153352,28.2767648 25.3718127,28.2199908 L27.7853807,25.7625226 C28.2938508,25.3105804 28.8863884,25.0843497 29.5637719,25.0843497 C30.0438736,25.0843497 30.4249451,25.1692511 30.7070729,25.3386213 L30.7496256,25.3386213 L38.9221645,30.169262 C39.5151345,30.5367354 39.8678375,31.0026115 39.9810519,31.5679287 Z" id="Fill-1"></path>
            </g>
        </g>
    </g>
</svg>